<svg width="87" height="31" viewBox="0 0 87 31" fill="none" xmlns="http://www.w3.org/2000/svg">
<path d="M10.3163 0H15.8289L26.1059 30.6901H20.5146L17.9158 23.0392H8.1507L5.5913 30.6901H0L10.3163 0ZM16.9314 18.8463L13.0726 6.18124L9.05633 18.8463H16.9314Z" fill="white"/>
<path d="M32.086 0L39.016 11.3251L45.9067 0H51.813L42.1267 15.5612L51.498 30.6901H45.5917L39.016 19.7972L32.401 30.6901H26.4553L35.8266 15.5612L26.1403 0H32.086Z" fill="white"/>
<path d="M54.6278 30.6901V0H60.0616V30.6901H54.6278Z" fill="#EC7979"/>
<path d="M86.8027 5.23028H77.8645V30.6901H72.4701V5.23028H63.5319V0H86.8027V5.23028Z" fill="#EC7979"/>
</svg>
